<svg width="96" height="82" viewBox="0 0 96 82" fill="none" xmlns="http://www.w3.org/2000/svg">
<path d="M27.8 63.8C27.8333 64.1333 27.8 64.45 27.7 64.75C27.6333 64.95 27.5333 65.1167 27.4 65.25C27.3 65.3833 27.1667 65.5167 27 65.65C26.7 65.85 26.3333 66.0333 25.9 66.2C25.6333 66.2667 25.3667 66.3167 25.1 66.35C24.8667 66.4167 24.6167 66.4167 24.35 66.35C23.8167 66.3167 23.35 66.1167 22.95 65.75C22.3833 65.2833 21.9167 64.7667 21.55 64.2C21.3833 63.9333 21.2 63.6333 21 63.3C20.8 62.9667 20.6167 62.6167 20.45 62.25L14.9 51.7C14.6333 51.7 14.3667 51.7167 14.1 51.75C13.8333 51.75 13.5667 51.7667 13.3 51.8C12.6 51.8667 11.9333 51.8833 11.3 51.85C10.7 51.8167 10.0667 51.8167 9.4 51.85H8.45V60.9C8.45 61.1667 8.43333 61.4167 8.4 61.65C8.4 61.8833 8.4 62.1333 8.4 62.4C8.4 62.5667 8.38333 62.7833 8.35 63.05C8.35 63.3167 8.33333 63.5667 8.3 63.8C8.23333 64.1667 8.08333 64.55 7.85 64.95C7.61667 65.3167 7.3 65.6333 6.9 65.9C6.2 66.3333 5.35 66.45 4.35 66.25C3.91667 66.15 3.5 65.9833 3.1 65.75C2.96667 65.65 2.85 65.5333 2.75 65.4C2.65 65.2333 2.56667 65.0667 2.5 64.9C2.43333 64.7333 2.36667 64.5667 2.3 64.4C2.26667 64.2 2.21667 64.0167 2.15 63.85C2.05 63.5167 2 63.2 2 62.9V34.5C2 34.3 2 34.1 2 33.9C2.03333 33.6667 2.06667 33.4667 2.1 33.3C2.13333 32.9333 2.25 32.5667 2.45 32.2C2.55 31.8 2.71667 31.5167 2.95 31.35C3.15 31.15 3.45 30.9833 3.85 30.85C4.28333 30.6833 4.9 30.6167 5.7 30.65C7.2 30.6833 8.68333 30.7 10.15 30.7C11.6167 30.7 13.0833 30.7333 14.55 30.8C15.5167 30.8667 16.5333 30.9833 17.6 31.15C18.7 31.2833 19.7167 31.5333 20.65 31.9C21.25 32.1333 21.8 32.3667 22.3 32.6C22.9333 32.9667 23.4333 33.3167 23.8 33.65C24.9667 34.7167 25.85 36 26.45 37.5C27.05 39 27.35 40.5167 27.35 42.05C27.35 43.85 26.9167 45.5 26.05 47C25.2167 48.5 23.8667 49.6167 22 50.35C21.9333 50.4167 21.8333 50.4667 21.7 50.5C21.6 50.5 21.5167 50.5167 21.45 50.55L26.05 59.8L26.5 60.6C26.5667 60.7333 26.65 60.8833 26.75 61.05C26.85 61.2167 26.9333 61.3833 27 61.55C27.1 61.7167 27.1833 61.9 27.25 62.1C27.35 62.3 27.45 62.4833 27.55 62.65C27.65 63.1167 27.7333 63.5 27.8 63.8ZM15.3 46C15.9 46 16.4667 45.9 17 45.7C17.5667 45.4667 18.0667 45.1667 18.5 44.8C18.9667 44.4333 19.35 44.0167 19.65 43.55C19.95 43.05 20.1167 42.5167 20.15 41.95C20.2833 40.2833 19.85 39.05 18.85 38.25C17.85 37.4167 16.5333 36.9667 14.9 36.9C13.9333 36.8333 12.8667 36.8 11.7 36.8C10.5667 36.8 9.48333 36.8 8.45 36.8C8.48333 38.1667 8.48333 39.5667 8.45 41C8.45 42.4 8.45 44.0667 8.45 46H15.3ZM59.134 33.35C59.334 34.95 59.4507 36.8167 59.484 38.95C59.5173 41.05 59.484 43.1833 59.384 45.35C59.3173 47.4833 59.1673 49.5167 58.934 51.45C58.7007 53.35 58.4173 54.8833 58.084 56.05C57.8507 56.75 57.5673 57.4833 57.234 58.25C56.934 58.9833 56.6007 59.65 56.234 60.25C55.7007 61.15 55.0507 61.95 54.284 62.65C53.5173 63.3167 52.6673 63.9 51.734 64.4C50.834 64.8667 49.8673 65.2333 48.834 65.5C47.834 65.7667 46.834 65.9167 45.834 65.95C44.0673 66.0167 42.384 65.7667 40.784 65.2C39.2173 64.6 37.7673 63.6667 36.434 62.4C35.434 61.4333 34.634 60.4 34.034 59.3C33.434 58.2 32.9673 57.05 32.634 55.85C32.3007 54.6167 32.084 53.35 31.984 52.05C31.9173 50.75 31.884 49.4167 31.884 48.05C31.884 47.4167 31.8673 46.6333 31.834 45.7C31.834 44.7333 31.834 43.75 31.834 42.75C31.834 41.7167 31.834 40.7167 31.834 39.75C31.834 38.7833 31.8507 37.9667 31.884 37.3C31.884 36.8667 31.884 36.4 31.884 35.9C31.884 35.3667 31.9007 34.85 31.934 34.35C32.0007 33.8167 32.1007 33.3167 32.234 32.85C32.3673 32.35 32.5673 31.9 32.834 31.5C33.134 31.0667 33.5507 30.75 34.084 30.55C34.6173 30.35 35.1673 30.25 35.734 30.25C36.334 30.25 36.9007 30.3667 37.434 30.6C37.9673 30.8333 38.4007 31.1667 38.734 31.6C38.9007 31.8667 39.0173 32.1333 39.084 32.4C39.1507 32.6667 39.2007 32.9667 39.234 33.3C39.3007 34.4 39.334 35.65 39.334 37.05C39.3673 38.45 39.3673 39.8167 39.334 41.15C39.334 42.45 39.3173 43.65 39.284 44.75C39.2507 45.85 39.234 46.6667 39.234 47.2C39.234 49.2 39.334 51.0167 39.534 52.65C39.734 54.25 40.2007 55.5833 40.934 56.65C41.6007 57.6167 42.384 58.2333 43.284 58.5C44.184 58.7667 45.084 58.85 45.984 58.75C46.8173 58.65 47.6507 58.35 48.484 57.85C49.3507 57.3167 50.034 56.55 50.534 55.55C50.734 55.1833 50.9007 54.7667 51.034 54.3C51.1673 53.8333 51.2673 53.4 51.334 53C51.4673 51.7333 51.584 50.2667 51.684 48.6C51.784 46.9 51.8673 45.1667 51.934 43.4C52.0007 41.6333 52.034 39.9 52.034 38.2C52.034 36.5 52.0173 34.9667 51.984 33.6C52.0507 33 52.234 32.45 52.534 31.95C52.8007 31.5167 53.184 31.1333 53.684 30.8C54.184 30.4667 54.8673 30.3 55.734 30.3C56.434 30.3333 57.0007 30.5167 57.434 30.85C57.8673 31.15 58.2173 31.4833 58.484 31.85C58.784 32.2833 59.0007 32.7833 59.134 33.35Z" fill="#54473F"/>
<path d="M87 56.75C85.8 58.4833 84.3667 59.8667 82.7 60.9C81.0667 61.9333 79.4 62.6 77.7 62.9C76 63.1667 74.4667 63.0167 73.1 62.45C71.7333 61.8833 70.7167 60.85 70.05 59.35C69.4167 57.85 69.3333 55.8333 69.8 53.3C69.8667 52.8333 69.9333 52.3833 70 51.95C70.0667 51.4833 70.0833 51 70.05 50.5C70.05 50.2667 70 49.9833 69.9 49.65C69.8333 49.3167 69.6667 49.1833 69.4 49.25C67.8 49.4833 66.4167 50 65.25 50.8C64.0833 51.5667 63.1 52.4833 62.3 53.55C62.7 52.3167 63.1 51.1 63.5 49.9C63.9333 48.7 64.3833 47.5167 64.85 46.35C65.7833 45.4833 66.8 44.75 67.9 44.15C69 43.5167 70.3 43.0833 71.8 42.85C72 42.8167 72.2 42.8833 72.4 43.05C72.6 43.2167 72.7 43.4 72.7 43.6C72.6667 44.7333 72.5 46.0167 72.2 47.45C71.9 48.8833 71.8167 50.25 71.95 51.55C72.0833 53.2167 72.6 54.4 73.5 55.1C74.4 55.7667 75.5 56.0833 76.8 56.05C78.1333 56.0167 79.5167 55.7667 80.95 55.3C82.3833 54.8 83.7167 54.2 84.95 53.5C86.2167 52.7667 87.2167 52.0667 87.95 51.4C87.9833 50.9667 87.9833 50.4 87.95 49.7C87.95 49 87.9167 48.3 87.85 47.6C87.8167 46.9 87.7333 46.3833 87.6 46.05C87.5667 45.9833 87.5 45.8667 87.4 45.7C87.3333 45.5 87.2167 45.4833 87.05 45.65C86.5167 46.0833 85.8333 46.4333 85 46.7C84.1667 46.9667 83.35 46.9 82.55 46.5C82.0833 46.2667 81.8333 45.8167 81.8 45.15C81.8 44.45 81.9167 43.8667 82.15 43.4C82.7167 42.3667 83.25 41.3167 83.75 40.25C84.2833 39.15 84.8833 38.1333 85.55 37.2C86.1167 36.4333 86.7 36.1167 87.3 36.25C87.9333 36.35 88.5333 36.7333 89.1 37.4C89.6667 38.0667 90.1333 38.85 90.5 39.75C90.9 40.6167 91.15 41.4167 91.25 42.15C91.35 43.15 91.3 44.3167 91.1 45.65C90.9 46.95 90.5833 48.3 90.15 49.7C89.7167 51.1 89.2167 52.4333 88.65 53.7C88.1167 54.9333 87.5667 55.95 87 56.75Z" fill="#54473F"/>
</svg>
